<mxfile host="app.diagrams.net" agent="Mozilla/5.0 (Windows NT 10.0; Win64; x64) AppleWebKit/537.36 (KHTML, like Gecko) Chrome/127.0.0.0 Safari/537.36" version="25.0.3">
  <diagram name="第 1 页" id="UHue22vEZCIFuxFceJIO">
    <mxGraphModel dx="647" dy="360" grid="1" gridSize="10" guides="1" tooltips="1" connect="1" arrows="1" fold="1" page="1" pageScale="1" pageWidth="827" pageHeight="1169" math="0" shadow="0">
      <root>
        <mxCell id="0" />
        <mxCell id="1" parent="0" />
        <mxCell id="uAoKiUj5T_XBI4JNe3-C-21" style="edgeStyle=orthogonalEdgeStyle;rounded=0;orthogonalLoop=1;jettySize=auto;html=1;entryX=0;entryY=0.5;entryDx=0;entryDy=0;" edge="1" parent="1" source="uAoKiUj5T_XBI4JNe3-C-1" target="uAoKiUj5T_XBI4JNe3-C-3">
          <mxGeometry relative="1" as="geometry" />
        </mxCell>
        <mxCell id="uAoKiUj5T_XBI4JNe3-C-1" value="logback" style="rounded=1;whiteSpace=wrap;html=1;strokeWidth=3;" vertex="1" parent="1">
          <mxGeometry x="70" y="110" width="140" height="40" as="geometry" />
        </mxCell>
        <mxCell id="uAoKiUj5T_XBI4JNe3-C-2" value="基于Logback日志" style="text;html=1;align=center;verticalAlign=middle;resizable=0;points=[];autosize=1;strokeColor=none;fillColor=none;" vertex="1" parent="1">
          <mxGeometry x="80" y="80" width="120" height="30" as="geometry" />
        </mxCell>
        <mxCell id="uAoKiUj5T_XBI4JNe3-C-22" style="edgeStyle=orthogonalEdgeStyle;rounded=0;orthogonalLoop=1;jettySize=auto;html=1;entryX=0.5;entryY=0;entryDx=0;entryDy=0;" edge="1" parent="1" source="uAoKiUj5T_XBI4JNe3-C-3" target="uAoKiUj5T_XBI4JNe3-C-6">
          <mxGeometry relative="1" as="geometry" />
        </mxCell>
        <mxCell id="uAoKiUj5T_XBI4JNe3-C-23" style="edgeStyle=orthogonalEdgeStyle;rounded=0;orthogonalLoop=1;jettySize=auto;html=1;entryX=0.5;entryY=0;entryDx=0;entryDy=0;" edge="1" parent="1" source="uAoKiUj5T_XBI4JNe3-C-3" target="uAoKiUj5T_XBI4JNe3-C-8">
          <mxGeometry relative="1" as="geometry" />
        </mxCell>
        <mxCell id="uAoKiUj5T_XBI4JNe3-C-24" style="edgeStyle=orthogonalEdgeStyle;rounded=0;orthogonalLoop=1;jettySize=auto;html=1;entryX=0.5;entryY=0;entryDx=0;entryDy=0;" edge="1" parent="1" source="uAoKiUj5T_XBI4JNe3-C-3" target="uAoKiUj5T_XBI4JNe3-C-7">
          <mxGeometry relative="1" as="geometry" />
        </mxCell>
        <mxCell id="uAoKiUj5T_XBI4JNe3-C-3" value="MonitorLogAppender" style="rounded=1;whiteSpace=wrap;html=1;strokeWidth=3;fillColor=#d5e8d4;strokeColor=#82b366;" vertex="1" parent="1">
          <mxGeometry x="280" y="110" width="180" height="40" as="geometry" />
        </mxCell>
        <mxCell id="uAoKiUj5T_XBI4JNe3-C-4" value="开发组件" style="text;html=1;align=center;verticalAlign=middle;resizable=0;points=[];autosize=1;strokeColor=none;fillColor=none;" vertex="1" parent="1">
          <mxGeometry x="335" y="80" width="70" height="30" as="geometry" />
        </mxCell>
        <mxCell id="uAoKiUj5T_XBI4JNe3-C-6" value="日志1" style="rounded=1;whiteSpace=wrap;html=1;fillColor=#f8cecc;strokeColor=#b85450;" vertex="1" parent="1">
          <mxGeometry x="280" y="200" width="40" height="40" as="geometry" />
        </mxCell>
        <mxCell id="uAoKiUj5T_XBI4JNe3-C-7" value="日志3" style="rounded=1;whiteSpace=wrap;html=1;fillColor=#e1d5e7;strokeColor=#9673a6;" vertex="1" parent="1">
          <mxGeometry x="420" y="200" width="40" height="40" as="geometry" />
        </mxCell>
        <mxCell id="uAoKiUj5T_XBI4JNe3-C-27" style="edgeStyle=orthogonalEdgeStyle;rounded=0;orthogonalLoop=1;jettySize=auto;html=1;entryX=0.5;entryY=0;entryDx=0;entryDy=0;" edge="1" parent="1" source="uAoKiUj5T_XBI4JNe3-C-8" target="uAoKiUj5T_XBI4JNe3-C-25">
          <mxGeometry relative="1" as="geometry" />
        </mxCell>
        <mxCell id="uAoKiUj5T_XBI4JNe3-C-8" value="日志2" style="rounded=1;whiteSpace=wrap;html=1;fillColor=#e1d5e7;strokeColor=#9673a6;" vertex="1" parent="1">
          <mxGeometry x="350" y="200" width="40" height="40" as="geometry" />
        </mxCell>
        <mxCell id="uAoKiUj5T_XBI4JNe3-C-20" value="过滤得到需要的日志" style="text;html=1;align=center;verticalAlign=middle;resizable=0;points=[];autosize=1;strokeColor=none;fillColor=none;" vertex="1" parent="1">
          <mxGeometry x="340" y="250" width="130" height="30" as="geometry" />
        </mxCell>
        <mxCell id="uAoKiUj5T_XBI4JNe3-C-36" style="edgeStyle=orthogonalEdgeStyle;rounded=0;orthogonalLoop=1;jettySize=auto;html=1;" edge="1" parent="1" source="uAoKiUj5T_XBI4JNe3-C-25" target="uAoKiUj5T_XBI4JNe3-C-30">
          <mxGeometry relative="1" as="geometry" />
        </mxCell>
        <mxCell id="uAoKiUj5T_XBI4JNe3-C-39" value="格式化" style="edgeLabel;html=1;align=center;verticalAlign=middle;resizable=0;points=[];" vertex="1" connectable="0" parent="uAoKiUj5T_XBI4JNe3-C-36">
          <mxGeometry x="-0.0981" y="-1" relative="1" as="geometry">
            <mxPoint as="offset" />
          </mxGeometry>
        </mxCell>
        <mxCell id="uAoKiUj5T_XBI4JNe3-C-25" value="日志推送&lt;br&gt;中间件：kafka、redis" style="rounded=1;whiteSpace=wrap;html=1;strokeWidth=3;fillColor=#d5e8d4;strokeColor=#82b366;" vertex="1" parent="1">
          <mxGeometry x="280" y="290" width="180" height="40" as="geometry" />
        </mxCell>
        <mxCell id="uAoKiUj5T_XBI4JNe3-C-29" style="edgeStyle=orthogonalEdgeStyle;rounded=0;orthogonalLoop=1;jettySize=auto;html=1;entryX=0.892;entryY=-0.06;entryDx=0;entryDy=0;entryPerimeter=0;" edge="1" parent="1" source="uAoKiUj5T_XBI4JNe3-C-7" target="uAoKiUj5T_XBI4JNe3-C-25">
          <mxGeometry relative="1" as="geometry" />
        </mxCell>
        <mxCell id="uAoKiUj5T_XBI4JNe3-C-30" value="监控中心&lt;br&gt;监听消息" style="rounded=1;whiteSpace=wrap;html=1;strokeWidth=3;fillColor=#fff2cc;strokeColor=#d6b656;" vertex="1" parent="1">
          <mxGeometry x="550" y="290" width="180" height="40" as="geometry" />
        </mxCell>
        <mxCell id="uAoKiUj5T_XBI4JNe3-C-42" value="" style="rounded=1;whiteSpace=wrap;html=1;fillColor=none;dashed=1;" vertex="1" parent="1">
          <mxGeometry x="250" y="20" width="240" height="360" as="geometry" />
        </mxCell>
        <mxCell id="uAoKiUj5T_XBI4JNe3-C-43" value="第三节：监控采集日志组件SDK设计实现" style="text;html=1;align=center;verticalAlign=middle;resizable=0;points=[];autosize=1;strokeColor=none;fillColor=none;" vertex="1" parent="1">
          <mxGeometry x="250" y="50" width="240" height="30" as="geometry" />
        </mxCell>
      </root>
    </mxGraphModel>
  </diagram>
</mxfile>
